# xmcd CD database file
#
# Track frame offsets:
#	150
#	20027
#	40557
#	60425
#
# Disc length: 1078 seconds
#
# Revision: 1
# Processed by: cddbd v1.5PL3 Copyright (c) Steve Scherf et al.
# Submitted via: CDex 1.50beta10
#
DISCID=27043404
DTITLE=奥井雅美 - Birth
DYEAR=1998
DGENRE=Anime
TTITLE0=Birth
TTITLE1=太陽の花
TTITLE2=Birth(off vocal)
TTITLE3=太陽の花(off vocal)
EXTD=YEAR: 1998/05/22
EXTT0=
EXTT1=
EXTT2=
EXTT3=
PLAYORDER=
